<?xml version="1.0" encoding="UTF-8"?>
<svg xmlns="http://www.w3.org/2000/svg" viewBox="0 0 8000 1000" width="8000" height="1000">
  <!-- 背景参考线（可删除） -->
  <line x1="0" y1="500.0" x2="8000" y2="500.0" stroke="#eee" stroke-width="1" stroke-dasharray="4 4"/>
  
  <!-- 引导虚线 -->
  <path id="guide-path" d="M 0,500.0 C 167,650 250,440 417,500 C 588,250 674,600 845,500 C 1013,900 1097,340 1265,500 C 1467,50 1568,720 1769,500 C 2026,950 2155,180 2412,500 C 2623,50 2728,780 2939,500 C 3117,850 3207,360 3386,500 C 3543,50 3622,680 3780,500 C 3995,950 4102,160 4317,500 C 4523,50 4626,740 4832,500 C 4979,700 5052,420 5199,500 C 5339,350 5409,560 5549,500 C 5721,950 5806,200 5978,500 C 6178,50 6278,860 6478,500 C 6666,900 6761,340 6949,500 C 7111,250 7192,600 7354,500 C 7482,650 7546,440 7675,500 L 8000,500.0" fill="none" stroke="#d4d4d8" stroke-width="2" stroke-dasharray="8 8"/>
  
  <!-- 实线（初始隐藏，由 JS 控制 strokeDashoffset） -->
  <path id="draw-path" d="M 0,500.0 C 167,650 250,440 417,500 C 588,250 674,600 845,500 C 1013,900 1097,340 1265,500 C 1467,50 1568,720 1769,500 C 2026,950 2155,180 2412,500 C 2623,50 2728,780 2939,500 C 3117,850 3207,360 3386,500 C 3543,50 3622,680 3780,500 C 3995,950 4102,160 4317,500 C 4523,50 4626,740 4832,500 C 4979,700 5052,420 5199,500 C 5339,350 5409,560 5549,500 C 5721,950 5806,200 5978,500 C 6178,50 6278,860 6478,500 C 6666,900 6761,340 6949,500 C 7111,250 7192,600 7354,500 C 7482,650 7546,440 7675,500 L 8000,500.0" fill="none" stroke="#09090b" stroke-width="2"/>
</svg>