<svg width="3840" height="653" viewBox="0 0 3840 653" fill="none" xmlns="http://www.w3.org/2000/svg">
<path d="M0 617.125L177.275 460.241C198.189 441.732 229.108 440.101 251.854 456.307L357.259 531.405C385.529 551.547 424.942 543.569 443.153 514.018L500.973 420.198C515.706 396.291 574.113 414.134 599 401.125C640.518 379.423 654.27 355.94 665.024 328.933C676.677 299.669 708.568 286.453 737.679 298.486L741.145 299.918C772.503 312.88 808.361 297.28 820.256 265.502L901.436 48.6277C917.08 6.83563 971.247 -3.86286 1001.6 28.8435L1042.53 72.9355C1073.21 105.992 1128.03 94.6461 1143.07 52.1254L1147.18 40.4982C1164.33 -7.97377 1230.51 -13.8388 1255.92 30.8628L1370 231.625L1458.54 376.332C1475.49 404.051 1511.44 413.231 1539.61 397.041L1646.83 335.424C1679.57 316.614 1721.33 332.347 1733.52 368.078L1796.69 553.301C1813.81 603.496 1882.86 608.427 1906.94 561.174L1914.92 545.499C1932.39 511.224 1977.14 502.008 2006.73 526.592L2117.08 618.287C2139.56 636.967 2172.24 636.729 2194.44 617.721L2323.5 507.255C2329.77 501.892 2334.86 495.296 2338.46 487.878L2450.5 257.125L2517.13 122.044C2530.91 94.0968 2563.79 81.3535 2592.81 92.7144L2790.42 170.082C2817.17 180.559 2847.6 170.592 2862.98 146.315L2869.1 136.646C2893.2 98.6051 2949.05 99.6713 2971.67 138.604L2973.2 141.239C2991.56 172.834 3033.66 180.82 3062.31 158.144L3203.08 46.7422C3239.62 17.8321 3293.72 39.7706 3299.8 85.9591L3327.51 296.378C3333.63 342.871 3388.33 364.685 3424.77 335.165L3430.94 330.167C3460.74 306.018 3505.25 315.661 3522.38 349.983L3656.68 618.921C3669.61 644.821 3699.19 657.793 3727.01 649.76L3840 617.125" stroke="black"/>
</svg>
